<?xml version="1.0" encoding="utf-8" standalone="no"?>
<!DOCTYPE svg PUBLIC "-//W3C//DTD SVG 1.1//EN"
  "http://www.w3.org/Graphics/SVG/1.1/DTD/svg11.dtd">
<svg height="345.6pt" version="1.1" viewBox="0 0 460.8 345.6" width="460.8pt" xmlns="http://www.w3.org/2000/svg" xmlns:xlink="http://www.w3.org/1999/xlink">
 <metadata>
  <rdf:RDF xmlns:cc="http://creativecommons.org/ns#" xmlns:dc="http://purl.org/dc/elements/1.1/" xmlns:rdf="http://www.w3.org/1999/02/22-rdf-syntax-ns#">
   <cc:Work>
    <dc:type rdf:resource="http://purl.org/dc/dcmitype/StillImage"/>
    <dc:date>2021-08-02T15:57:40.447378</dc:date>
    <dc:format>image/svg+xml</dc:format>
    <dc:creator>
     <cc:Agent>
      <dc:title>Matplotlib v3.4.2, https://matplotlib.org/</dc:title>
     </cc:Agent>
    </dc:creator>
   </cc:Work>
  </rdf:RDF>
 </metadata>
 <defs>
  <style type="text/css">*{stroke-linecap:butt;stroke-linejoin:round;}</style>
 </defs>
 <g id="figure_1">
  <g id="patch_1">
   <path d="M 0 345.6 
L 460.8 345.6 
L 460.8 0 
L 0 0 
z
" style="fill:#ffffff;"/>
  </g>
  <g id="axes_1">
   <g id="patch_2">
    <path d="M 57.6 307.584 
L 414.72 307.584 
L 414.72 41.472 
L 57.6 41.472 
z
" style="fill:#ffffff;"/>
   </g>
   <g id="patch_3">
    <path clip-path="url(#p8d9220e1c4)" d="M 73.832727 307.584 
L 76.435169 307.584 
L 76.435169 305.8944 
L 73.832727 305.8944 
z
" style="fill:#1f77b4;"/>
   </g>
   <g id="patch_4">
    <path clip-path="url(#p8d9220e1c4)" d="M 77.085779 307.584 
L 79.68822 307.584 
L 79.68822 305.8944 
L 77.085779 305.8944 
z
" style="fill:#1f77b4;"/>
   </g>
   <g id="patch_5">
    <path clip-path="url(#p8d9220e1c4)" d="M 80.33883 307.584 
L 82.941272 307.584 
L 82.941272 304.2048 
L 80.33883 304.2048 
z
" style="fill:#1f77b4;"/>
   </g>
   <g id="patch_6">
    <path clip-path="url(#p8d9220e1c4)" d="M 83.591882 307.584 
L 86.194323 307.584 
L 86.194323 304.2048 
L 83.591882 304.2048 
z
" style="fill:#1f77b4;"/>
   </g>
   <g id="patch_7">
    <path clip-path="url(#p8d9220e1c4)" d="M 86.844934 307.584 
L 89.447375 307.584 
L 89.447375 304.2048 
L 86.844934 304.2048 
z
" style="fill:#1f77b4;"/>
   </g>
   <g id="patch_8">
    <path clip-path="url(#p8d9220e1c4)" d="M 90.097985 307.584 
L 92.700426 307.584 
L 92.700426 304.2048 
L 90.097985 304.2048 
z
" style="fill:#1f77b4;"/>
   </g>
   <g id="patch_9">
    <path clip-path="url(#p8d9220e1c4)" d="M 93.351037 307.584 
L 95.953478 307.584 
L 95.953478 304.2048 
L 93.351037 304.2048 
z
" style="fill:#1f77b4;"/>
   </g>
   <g id="patch_10">
    <path clip-path="url(#p8d9220e1c4)" d="M 96.604088 307.584 
L 99.206529 307.584 
L 99.206529 304.2048 
L 96.604088 304.2048 
z
" style="fill:#1f77b4;"/>
   </g>
   <g id="patch_11">
    <path clip-path="url(#p8d9220e1c4)" d="M 99.85714 307.584 
L 102.459581 307.584 
L 102.459581 304.2048 
L 99.85714 304.2048 
z
" style="fill:#1f77b4;"/>
   </g>
   <g id="patch_12">
    <path clip-path="url(#p8d9220e1c4)" d="M 103.110191 307.584 
L 105.712633 307.584 
L 105.712633 304.2048 
L 103.110191 304.2048 
z
" style="fill:#1f77b4;"/>
   </g>
   <g id="patch_13">
    <path clip-path="url(#p8d9220e1c4)" d="M 106.363243 307.584 
L 108.965684 307.584 
L 108.965684 304.2048 
L 106.363243 304.2048 
z
" style="fill:#1f77b4;"/>
   </g>
   <g id="patch_14">
    <path clip-path="url(#p8d9220e1c4)" d="M 109.616294 307.584 
L 112.218736 307.584 
L 112.218736 304.2048 
L 109.616294 304.2048 
z
" style="fill:#1f77b4;"/>
   </g>
   <g id="patch_15">
    <path clip-path="url(#p8d9220e1c4)" d="M 112.869346 307.584 
L 115.471787 307.584 
L 115.471787 304.2048 
L 112.869346 304.2048 
z
" style="fill:#1f77b4;"/>
   </g>
   <g id="patch_16">
    <path clip-path="url(#p8d9220e1c4)" d="M 116.122398 307.584 
L 118.724839 307.584 
L 118.724839 304.2048 
L 116.122398 304.2048 
z
" style="fill:#1f77b4;"/>
   </g>
   <g id="patch_17">
    <path clip-path="url(#p8d9220e1c4)" d="M 119.375449 307.584 
L 121.97789 307.584 
L 121.97789 304.2048 
L 119.375449 304.2048 
z
" style="fill:#1f77b4;"/>
   </g>
   <g id="patch_18">
    <path clip-path="url(#p8d9220e1c4)" d="M 122.628501 307.584 
L 125.230942 307.584 
L 125.230942 304.2048 
L 122.628501 304.2048 
z
" style="fill:#1f77b4;"/>
   </g>
   <g id="patch_19">
    <path clip-path="url(#p8d9220e1c4)" d="M 125.881552 307.584 
L 128.483993 307.584 
L 128.483993 304.2048 
L 125.881552 304.2048 
z
" style="fill:#1f77b4;"/>
   </g>
   <g id="patch_20">
    <path clip-path="url(#p8d9220e1c4)" d="M 129.134604 307.584 
L 131.737045 307.584 
L 131.737045 304.2048 
L 129.134604 304.2048 
z
" style="fill:#1f77b4;"/>
   </g>
   <g id="patch_21">
    <path clip-path="url(#p8d9220e1c4)" d="M 132.387655 307.584 
L 134.990097 307.584 
L 134.990097 304.2048 
L 132.387655 304.2048 
z
" style="fill:#1f77b4;"/>
   </g>
   <g id="patch_22">
    <path clip-path="url(#p8d9220e1c4)" d="M 135.640707 307.584 
L 138.243148 307.584 
L 138.243148 304.2048 
L 135.640707 304.2048 
z
" style="fill:#1f77b4;"/>
   </g>
   <g id="patch_23">
    <path clip-path="url(#p8d9220e1c4)" d="M 138.893758 307.584 
L 141.4962 307.584 
L 141.4962 304.2048 
L 138.893758 304.2048 
z
" style="fill:#1f77b4;"/>
   </g>
   <g id="patch_24">
    <path clip-path="url(#p8d9220e1c4)" d="M 142.14681 307.584 
L 144.749251 307.584 
L 144.749251 304.2048 
L 142.14681 304.2048 
z
" style="fill:#1f77b4;"/>
   </g>
   <g id="patch_25">
    <path clip-path="url(#p8d9220e1c4)" d="M 145.399862 307.584 
L 148.002303 307.584 
L 148.002303 304.2048 
L 145.399862 304.2048 
z
" style="fill:#1f77b4;"/>
   </g>
   <g id="patch_26">
    <path clip-path="url(#p8d9220e1c4)" d="M 148.652913 307.584 
L 151.255354 307.584 
L 151.255354 304.2048 
L 148.652913 304.2048 
z
" style="fill:#1f77b4;"/>
   </g>
   <g id="patch_27">
    <path clip-path="url(#p8d9220e1c4)" d="M 151.905965 307.584 
L 154.508406 307.584 
L 154.508406 304.2048 
L 151.905965 304.2048 
z
" style="fill:#1f77b4;"/>
   </g>
   <g id="patch_28">
    <path clip-path="url(#p8d9220e1c4)" d="M 155.159016 307.584 
L 157.761457 307.584 
L 157.761457 304.2048 
L 155.159016 304.2048 
z
" style="fill:#1f77b4;"/>
   </g>
   <g id="patch_29">
    <path clip-path="url(#p8d9220e1c4)" d="M 158.412068 307.584 
L 161.014509 307.584 
L 161.014509 304.2048 
L 158.412068 304.2048 
z
" style="fill:#1f77b4;"/>
   </g>
   <g id="patch_30">
    <path clip-path="url(#p8d9220e1c4)" d="M 161.665119 307.584 
L 164.267561 307.584 
L 164.267561 304.2048 
L 161.665119 304.2048 
z
" style="fill:#1f77b4;"/>
   </g>
   <g id="patch_31">
    <path clip-path="url(#p8d9220e1c4)" d="M 164.918171 307.584 
L 167.520612 307.584 
L 167.520612 304.2048 
L 164.918171 304.2048 
z
" style="fill:#1f77b4;"/>
   </g>
   <g id="patch_32">
    <path clip-path="url(#p8d9220e1c4)" d="M 168.171222 307.584 
L 170.773664 307.584 
L 170.773664 304.2048 
L 168.171222 304.2048 
z
" style="fill:#1f77b4;"/>
   </g>
   <g id="patch_33">
    <path clip-path="url(#p8d9220e1c4)" d="M 171.424274 307.584 
L 174.026715 307.584 
L 174.026715 304.2048 
L 171.424274 304.2048 
z
" style="fill:#1f77b4;"/>
   </g>
   <g id="patch_34">
    <path clip-path="url(#p8d9220e1c4)" d="M 174.677326 307.584 
L 177.279767 307.584 
L 177.279767 304.2048 
L 174.677326 304.2048 
z
" style="fill:#1f77b4;"/>
   </g>
   <g id="patch_35">
    <path clip-path="url(#p8d9220e1c4)" d="M 177.930377 307.584 
L 180.532818 307.584 
L 180.532818 304.2048 
L 177.930377 304.2048 
z
" style="fill:#1f77b4;"/>
   </g>
   <g id="patch_36">
    <path clip-path="url(#p8d9220e1c4)" d="M 181.183429 307.584 
L 183.78587 307.584 
L 183.78587 304.2048 
L 181.183429 304.2048 
z
" style="fill:#1f77b4;"/>
   </g>
   <g id="patch_37">
    <path clip-path="url(#p8d9220e1c4)" d="M 184.43648 307.584 
L 187.038921 307.584 
L 187.038921 304.2048 
L 184.43648 304.2048 
z
" style="fill:#1f77b4;"/>
   </g>
   <g id="patch_38">
    <path clip-path="url(#p8d9220e1c4)" d="M 187.689532 307.584 
L 190.291973 307.584 
L 190.291973 304.2048 
L 187.689532 304.2048 
z
" style="fill:#1f77b4;"/>
   </g>
   <g id="patch_39">
    <path clip-path="url(#p8d9220e1c4)" d="M 190.942583 307.584 
L 193.545025 307.584 
L 193.545025 304.2048 
L 190.942583 304.2048 
z
" style="fill:#1f77b4;"/>
   </g>
   <g id="patch_40">
    <path clip-path="url(#p8d9220e1c4)" d="M 194.195635 307.584 
L 196.798076 307.584 
L 196.798076 304.2048 
L 194.195635 304.2048 
z
" style="fill:#1f77b4;"/>
   </g>
   <g id="patch_41">
    <path clip-path="url(#p8d9220e1c4)" d="M 197.448686 307.584 
L 200.051128 307.584 
L 200.051128 304.2048 
L 197.448686 304.2048 
z
" style="fill:#1f77b4;"/>
   </g>
   <g id="patch_42">
    <path clip-path="url(#p8d9220e1c4)" d="M 200.701738 307.584 
L 203.304179 307.584 
L 203.304179 304.2048 
L 200.701738 304.2048 
z
" style="fill:#1f77b4;"/>
   </g>
   <g id="patch_43">
    <path clip-path="url(#p8d9220e1c4)" d="M 203.95479 307.584 
L 206.557231 307.584 
L 206.557231 304.2048 
L 203.95479 304.2048 
z
" style="fill:#1f77b4;"/>
   </g>
   <g id="patch_44">
    <path clip-path="url(#p8d9220e1c4)" d="M 207.207841 307.584 
L 209.810282 307.584 
L 209.810282 304.2048 
L 207.207841 304.2048 
z
" style="fill:#1f77b4;"/>
   </g>
   <g id="patch_45">
    <path clip-path="url(#p8d9220e1c4)" d="M 210.460893 307.584 
L 213.063334 307.584 
L 213.063334 304.2048 
L 210.460893 304.2048 
z
" style="fill:#1f77b4;"/>
   </g>
   <g id="patch_46">
    <path clip-path="url(#p8d9220e1c4)" d="M 213.713944 307.584 
L 216.316385 307.584 
L 216.316385 304.2048 
L 213.713944 304.2048 
z
" style="fill:#1f77b4;"/>
   </g>
   <g id="patch_47">
    <path clip-path="url(#p8d9220e1c4)" d="M 216.966996 307.584 
L 219.569437 307.584 
L 219.569437 304.2048 
L 216.966996 304.2048 
z
" style="fill:#1f77b4;"/>
   </g>
   <g id="patch_48">
    <path clip-path="url(#p8d9220e1c4)" d="M 220.220047 307.584 
L 222.822489 307.584 
L 222.822489 304.2048 
L 220.220047 304.2048 
z
" style="fill:#1f77b4;"/>
   </g>
   <g id="patch_49">
    <path clip-path="url(#p8d9220e1c4)" d="M 223.473099 307.584 
L 226.07554 307.584 
L 226.07554 304.2048 
L 223.473099 304.2048 
z
" style="fill:#1f77b4;"/>
   </g>
   <g id="patch_50">
    <path clip-path="url(#p8d9220e1c4)" d="M 226.72615 307.584 
L 229.328592 307.584 
L 229.328592 304.2048 
L 226.72615 304.2048 
z
" style="fill:#1f77b4;"/>
   </g>
   <g id="patch_51">
    <path clip-path="url(#p8d9220e1c4)" d="M 229.979202 307.584 
L 232.581643 307.584 
L 232.581643 304.2048 
L 229.979202 304.2048 
z
" style="fill:#1f77b4;"/>
   </g>
   <g id="patch_52">
    <path clip-path="url(#p8d9220e1c4)" d="M 233.232254 307.584 
L 235.834695 307.584 
L 235.834695 304.2048 
L 233.232254 304.2048 
z
" style="fill:#1f77b4;"/>
   </g>
   <g id="patch_53">
    <path clip-path="url(#p8d9220e1c4)" d="M 236.485305 307.584 
L 239.087746 307.584 
L 239.087746 304.2048 
L 236.485305 304.2048 
z
" style="fill:#1f77b4;"/>
   </g>
   <g id="patch_54">
    <path clip-path="url(#p8d9220e1c4)" d="M 239.738357 307.584 
L 242.340798 307.584 
L 242.340798 304.2048 
L 239.738357 304.2048 
z
" style="fill:#1f77b4;"/>
   </g>
   <g id="patch_55">
    <path clip-path="url(#p8d9220e1c4)" d="M 242.991408 307.584 
L 245.59385 307.584 
L 245.59385 304.2048 
L 242.991408 304.2048 
z
" style="fill:#1f77b4;"/>
   </g>
   <g id="patch_56">
    <path clip-path="url(#p8d9220e1c4)" d="M 246.24446 307.584 
L 248.846901 307.584 
L 248.846901 304.2048 
L 246.24446 304.2048 
z
" style="fill:#1f77b4;"/>
   </g>
   <g id="patch_57">
    <path clip-path="url(#p8d9220e1c4)" d="M 249.497511 307.584 
L 252.099953 307.584 
L 252.099953 304.2048 
L 249.497511 304.2048 
z
" style="fill:#1f77b4;"/>
   </g>
   <g id="patch_58">
    <path clip-path="url(#p8d9220e1c4)" d="M 252.750563 307.584 
L 255.353004 307.584 
L 255.353004 304.2048 
L 252.750563 304.2048 
z
" style="fill:#1f77b4;"/>
   </g>
   <g id="patch_59">
    <path clip-path="url(#p8d9220e1c4)" d="M 256.003615 307.584 
L 258.606056 307.584 
L 258.606056 304.2048 
L 256.003615 304.2048 
z
" style="fill:#1f77b4;"/>
   </g>
   <g id="patch_60">
    <path clip-path="url(#p8d9220e1c4)" d="M 259.256666 307.584 
L 261.859107 307.584 
L 261.859107 304.2048 
L 259.256666 304.2048 
z
" style="fill:#1f77b4;"/>
   </g>
   <g id="patch_61">
    <path clip-path="url(#p8d9220e1c4)" d="M 262.509718 307.584 
L 265.112159 307.584 
L 265.112159 304.2048 
L 262.509718 304.2048 
z
" style="fill:#1f77b4;"/>
   </g>
   <g id="patch_62">
    <path clip-path="url(#p8d9220e1c4)" d="M 265.762769 307.584 
L 268.36521 307.584 
L 268.36521 304.2048 
L 265.762769 304.2048 
z
" style="fill:#1f77b4;"/>
   </g>
   <g id="patch_63">
    <path clip-path="url(#p8d9220e1c4)" d="M 269.015821 307.584 
L 271.618262 307.584 
L 271.618262 304.2048 
L 269.015821 304.2048 
z
" style="fill:#1f77b4;"/>
   </g>
   <g id="patch_64">
    <path clip-path="url(#p8d9220e1c4)" d="M 272.268872 307.584 
L 274.871314 307.584 
L 274.871314 304.2048 
L 272.268872 304.2048 
z
" style="fill:#1f77b4;"/>
   </g>
   <g id="patch_65">
    <path clip-path="url(#p8d9220e1c4)" d="M 275.521924 307.584 
L 278.124365 307.584 
L 278.124365 304.2048 
L 275.521924 304.2048 
z
" style="fill:#1f77b4;"/>
   </g>
   <g id="patch_66">
    <path clip-path="url(#p8d9220e1c4)" d="M 278.774975 307.584 
L 281.377417 307.584 
L 281.377417 304.2048 
L 278.774975 304.2048 
z
" style="fill:#1f77b4;"/>
   </g>
   <g id="patch_67">
    <path clip-path="url(#p8d9220e1c4)" d="M 282.028027 307.584 
L 284.630468 307.584 
L 284.630468 304.2048 
L 282.028027 304.2048 
z
" style="fill:#1f77b4;"/>
   </g>
   <g id="patch_68">
    <path clip-path="url(#p8d9220e1c4)" d="M 285.281079 307.584 
L 287.88352 307.584 
L 287.88352 304.2048 
L 285.281079 304.2048 
z
" style="fill:#1f77b4;"/>
   </g>
   <g id="patch_69">
    <path clip-path="url(#p8d9220e1c4)" d="M 288.53413 307.584 
L 291.136571 307.584 
L 291.136571 304.2048 
L 288.53413 304.2048 
z
" style="fill:#1f77b4;"/>
   </g>
   <g id="patch_70">
    <path clip-path="url(#p8d9220e1c4)" d="M 291.787182 307.584 
L 294.389623 307.584 
L 294.389623 304.2048 
L 291.787182 304.2048 
z
" style="fill:#1f77b4;"/>
   </g>
   <g id="patch_71">
    <path clip-path="url(#p8d9220e1c4)" d="M 295.040233 307.584 
L 297.642674 307.584 
L 297.642674 304.2048 
L 295.040233 304.2048 
z
" style="fill:#1f77b4;"/>
   </g>
   <g id="patch_72">
    <path clip-path="url(#p8d9220e1c4)" d="M 298.293285 307.584 
L 300.895726 307.584 
L 300.895726 304.2048 
L 298.293285 304.2048 
z
" style="fill:#1f77b4;"/>
   </g>
   <g id="patch_73">
    <path clip-path="url(#p8d9220e1c4)" d="M 301.546336 307.584 
L 304.148778 307.584 
L 304.148778 304.2048 
L 301.546336 304.2048 
z
" style="fill:#1f77b4;"/>
   </g>
   <g id="patch_74">
    <path clip-path="url(#p8d9220e1c4)" d="M 304.799388 307.584 
L 307.401829 307.584 
L 307.401829 304.2048 
L 304.799388 304.2048 
z
" style="fill:#1f77b4;"/>
   </g>
   <g id="patch_75">
    <path clip-path="url(#p8d9220e1c4)" d="M 308.052439 307.584 
L 310.654881 307.584 
L 310.654881 304.2048 
L 308.052439 304.2048 
z
" style="fill:#1f77b4;"/>
   </g>
   <g id="patch_76">
    <path clip-path="url(#p8d9220e1c4)" d="M 311.305491 307.584 
L 313.907932 307.584 
L 313.907932 304.2048 
L 311.305491 304.2048 
z
" style="fill:#1f77b4;"/>
   </g>
   <g id="patch_77">
    <path clip-path="url(#p8d9220e1c4)" d="M 314.558543 307.584 
L 317.160984 307.584 
L 317.160984 304.2048 
L 314.558543 304.2048 
z
" style="fill:#1f77b4;"/>
   </g>
   <g id="patch_78">
    <path clip-path="url(#p8d9220e1c4)" d="M 317.811594 307.584 
L 320.414035 307.584 
L 320.414035 304.2048 
L 317.811594 304.2048 
z
" style="fill:#1f77b4;"/>
   </g>
   <g id="patch_79">
    <path clip-path="url(#p8d9220e1c4)" d="M 321.064646 307.584 
L 323.667087 307.584 
L 323.667087 304.2048 
L 321.064646 304.2048 
z
" style="fill:#1f77b4;"/>
   </g>
   <g id="patch_80">
    <path clip-path="url(#p8d9220e1c4)" d="M 324.317697 307.584 
L 326.920138 307.584 
L 326.920138 304.2048 
L 324.317697 304.2048 
z
" style="fill:#1f77b4;"/>
   </g>
   <g id="patch_81">
    <path clip-path="url(#p8d9220e1c4)" d="M 327.570749 307.584 
L 330.17319 307.584 
L 330.17319 304.2048 
L 327.570749 304.2048 
z
" style="fill:#1f77b4;"/>
   </g>
   <g id="patch_82">
    <path clip-path="url(#p8d9220e1c4)" d="M 330.8238 307.584 
L 333.426242 307.584 
L 333.426242 304.2048 
L 330.8238 304.2048 
z
" style="fill:#1f77b4;"/>
   </g>
   <g id="patch_83">
    <path clip-path="url(#p8d9220e1c4)" d="M 334.076852 307.584 
L 336.679293 307.584 
L 336.679293 304.2048 
L 334.076852 304.2048 
z
" style="fill:#1f77b4;"/>
   </g>
   <g id="patch_84">
    <path clip-path="url(#p8d9220e1c4)" d="M 337.329903 307.584 
L 339.932345 307.584 
L 339.932345 304.2048 
L 337.329903 304.2048 
z
" style="fill:#1f77b4;"/>
   </g>
   <g id="patch_85">
    <path clip-path="url(#p8d9220e1c4)" d="M 340.582955 307.584 
L 343.185396 307.584 
L 343.185396 304.2048 
L 340.582955 304.2048 
z
" style="fill:#1f77b4;"/>
   </g>
   <g id="patch_86">
    <path clip-path="url(#p8d9220e1c4)" d="M 343.836007 307.584 
L 346.438448 307.584 
L 346.438448 304.2048 
L 343.836007 304.2048 
z
" style="fill:#1f77b4;"/>
   </g>
   <g id="patch_87">
    <path clip-path="url(#p8d9220e1c4)" d="M 347.089058 307.584 
L 349.691499 307.584 
L 349.691499 304.2048 
L 347.089058 304.2048 
z
" style="fill:#1f77b4;"/>
   </g>
   <g id="patch_88">
    <path clip-path="url(#p8d9220e1c4)" d="M 350.34211 307.584 
L 352.944551 307.584 
L 352.944551 302.5152 
L 350.34211 302.5152 
z
" style="fill:#1f77b4;"/>
   </g>
   <g id="patch_89">
    <path clip-path="url(#p8d9220e1c4)" d="M 353.595161 307.584 
L 356.197602 307.584 
L 356.197602 302.5152 
L 353.595161 302.5152 
z
" style="fill:#1f77b4;"/>
   </g>
   <g id="patch_90">
    <path clip-path="url(#p8d9220e1c4)" d="M 356.848213 307.584 
L 359.450654 307.584 
L 359.450654 302.5152 
L 356.848213 302.5152 
z
" style="fill:#1f77b4;"/>
   </g>
   <g id="patch_91">
    <path clip-path="url(#p8d9220e1c4)" d="M 360.101264 307.584 
L 362.703706 307.584 
L 362.703706 302.5152 
L 360.101264 302.5152 
z
" style="fill:#1f77b4;"/>
   </g>
   <g id="patch_92">
    <path clip-path="url(#p8d9220e1c4)" d="M 363.354316 307.584 
L 365.956757 307.584 
L 365.956757 302.5152 
L 363.354316 302.5152 
z
" style="fill:#1f77b4;"/>
   </g>
   <g id="patch_93">
    <path clip-path="url(#p8d9220e1c4)" d="M 366.607367 307.584 
L 369.209809 307.584 
L 369.209809 120.0384 
L 366.607367 120.0384 
z
" style="fill:#1f77b4;"/>
   </g>
   <g id="patch_94">
    <path clip-path="url(#p8d9220e1c4)" d="M 369.860419 307.584 
L 372.46286 307.584 
L 372.46286 116.6592 
L 369.860419 116.6592 
z
" style="fill:#1f77b4;"/>
   </g>
   <g id="patch_95">
    <path clip-path="url(#p8d9220e1c4)" d="M 373.113471 307.584 
L 375.715912 307.584 
L 375.715912 111.5904 
L 373.113471 111.5904 
z
" style="fill:#1f77b4;"/>
   </g>
   <g id="patch_96">
    <path clip-path="url(#p8d9220e1c4)" d="M 376.366522 307.584 
L 378.968963 307.584 
L 378.968963 108.2112 
L 376.366522 108.2112 
z
" style="fill:#1f77b4;"/>
   </g>
   <g id="patch_97">
    <path clip-path="url(#p8d9220e1c4)" d="M 379.619574 307.584 
L 382.222015 307.584 
L 382.222015 106.5216 
L 379.619574 106.5216 
z
" style="fill:#1f77b4;"/>
   </g>
   <g id="patch_98">
    <path clip-path="url(#p8d9220e1c4)" d="M 382.872625 307.584 
L 385.475066 307.584 
L 385.475066 86.2464 
L 382.872625 86.2464 
z
" style="fill:#1f77b4;"/>
   </g>
   <g id="patch_99">
    <path clip-path="url(#p8d9220e1c4)" d="M 386.125677 307.584 
L 388.728118 307.584 
L 388.728118 76.1088 
L 386.125677 76.1088 
z
" style="fill:#1f77b4;"/>
   </g>
   <g id="patch_100">
    <path clip-path="url(#p8d9220e1c4)" d="M 389.378728 307.584 
L 391.98117 307.584 
L 391.98117 69.3504 
L 389.378728 69.3504 
z
" style="fill:#1f77b4;"/>
   </g>
   <g id="patch_101">
    <path clip-path="url(#p8d9220e1c4)" d="M 392.63178 307.584 
L 395.234221 307.584 
L 395.234221 62.592 
L 392.63178 62.592 
z
" style="fill:#1f77b4;"/>
   </g>
   <g id="patch_102">
    <path clip-path="url(#p8d9220e1c4)" d="M 395.884831 307.584 
L 398.487273 307.584 
L 398.487273 54.144 
L 395.884831 54.144 
z
" style="fill:#1f77b4;"/>
   </g>
   <g id="matplotlib.axis_1">
    <g id="xtick_1">
     <g id="line2d_1">
      <defs>
       <path d="M 0 0 
L 0 3.5 
" id="m90dcabc8ea" style="stroke:#000000;stroke-width:0.8;"/>
      </defs>
      <g>
       <use style="stroke:#000000;stroke-width:0.8;" x="75.133948" xlink:href="#m90dcabc8ea" y="307.584"/>
      </g>
     </g>
     <g id="text_1">
      <!-- 0 -->
      <g transform="translate(71.952698 322.182437)scale(0.1 -0.1)">
       <defs>
        <path d="M 2034 4250 
Q 1547 4250 1301 3770 
Q 1056 3291 1056 2328 
Q 1056 1369 1301 889 
Q 1547 409 2034 409 
Q 2525 409 2770 889 
Q 3016 1369 3016 2328 
Q 3016 3291 2770 3770 
Q 2525 4250 2034 4250 
z
M 2034 4750 
Q 2819 4750 3233 4129 
Q 3647 3509 3647 2328 
Q 3647 1150 3233 529 
Q 2819 -91 2034 -91 
Q 1250 -91 836 529 
Q 422 1150 422 2328 
Q 422 3509 836 4129 
Q 1250 4750 2034 4750 
z
" id="DejaVuSans-30" transform="scale(0.015625)"/>
       </defs>
       <use xlink:href="#DejaVuSans-30"/>
      </g>
     </g>
    </g>
    <g id="xtick_2">
     <g id="line2d_2">
      <g>
       <use style="stroke:#000000;stroke-width:0.8;" x="140.194979" xlink:href="#m90dcabc8ea" y="307.584"/>
      </g>
     </g>
     <g id="text_2">
      <!-- 20 -->
      <g transform="translate(133.832479 322.182437)scale(0.1 -0.1)">
       <defs>
        <path d="M 1228 531 
L 3431 531 
L 3431 0 
L 469 0 
L 469 531 
Q 828 903 1448 1529 
Q 2069 2156 2228 2338 
Q 2531 2678 2651 2914 
Q 2772 3150 2772 3378 
Q 2772 3750 2511 3984 
Q 2250 4219 1831 4219 
Q 1534 4219 1204 4116 
Q 875 4013 500 3803 
L 500 4441 
Q 881 4594 1212 4672 
Q 1544 4750 1819 4750 
Q 2544 4750 2975 4387 
Q 3406 4025 3406 3419 
Q 3406 3131 3298 2873 
Q 3191 2616 2906 2266 
Q 2828 2175 2409 1742 
Q 1991 1309 1228 531 
z
" id="DejaVuSans-32" transform="scale(0.015625)"/>
       </defs>
       <use xlink:href="#DejaVuSans-32"/>
       <use x="63.623047" xlink:href="#DejaVuSans-30"/>
      </g>
     </g>
    </g>
    <g id="xtick_3">
     <g id="line2d_3">
      <g>
       <use style="stroke:#000000;stroke-width:0.8;" x="205.25601" xlink:href="#m90dcabc8ea" y="307.584"/>
      </g>
     </g>
     <g id="text_3">
      <!-- 40 -->
      <g transform="translate(198.89351 322.182437)scale(0.1 -0.1)">
       <defs>
        <path d="M 2419 4116 
L 825 1625 
L 2419 1625 
L 2419 4116 
z
M 2253 4666 
L 3047 4666 
L 3047 1625 
L 3713 1625 
L 3713 1100 
L 3047 1100 
L 3047 0 
L 2419 0 
L 2419 1100 
L 313 1100 
L 313 1709 
L 2253 4666 
z
" id="DejaVuSans-34" transform="scale(0.015625)"/>
       </defs>
       <use xlink:href="#DejaVuSans-34"/>
       <use x="63.623047" xlink:href="#DejaVuSans-30"/>
      </g>
     </g>
    </g>
    <g id="xtick_4">
     <g id="line2d_4">
      <g>
       <use style="stroke:#000000;stroke-width:0.8;" x="270.317041" xlink:href="#m90dcabc8ea" y="307.584"/>
      </g>
     </g>
     <g id="text_4">
      <!-- 60 -->
      <g transform="translate(263.954541 322.182437)scale(0.1 -0.1)">
       <defs>
        <path d="M 2113 2584 
Q 1688 2584 1439 2293 
Q 1191 2003 1191 1497 
Q 1191 994 1439 701 
Q 1688 409 2113 409 
Q 2538 409 2786 701 
Q 3034 994 3034 1497 
Q 3034 2003 2786 2293 
Q 2538 2584 2113 2584 
z
M 3366 4563 
L 3366 3988 
Q 3128 4100 2886 4159 
Q 2644 4219 2406 4219 
Q 1781 4219 1451 3797 
Q 1122 3375 1075 2522 
Q 1259 2794 1537 2939 
Q 1816 3084 2150 3084 
Q 2853 3084 3261 2657 
Q 3669 2231 3669 1497 
Q 3669 778 3244 343 
Q 2819 -91 2113 -91 
Q 1303 -91 875 529 
Q 447 1150 447 2328 
Q 447 3434 972 4092 
Q 1497 4750 2381 4750 
Q 2619 4750 2861 4703 
Q 3103 4656 3366 4563 
z
" id="DejaVuSans-36" transform="scale(0.015625)"/>
       </defs>
       <use xlink:href="#DejaVuSans-36"/>
       <use x="63.623047" xlink:href="#DejaVuSans-30"/>
      </g>
     </g>
    </g>
    <g id="xtick_5">
     <g id="line2d_5">
      <g>
       <use style="stroke:#000000;stroke-width:0.8;" x="335.378073" xlink:href="#m90dcabc8ea" y="307.584"/>
      </g>
     </g>
     <g id="text_5">
      <!-- 80 -->
      <g transform="translate(329.015573 322.182437)scale(0.1 -0.1)">
       <defs>
        <path d="M 2034 2216 
Q 1584 2216 1326 1975 
Q 1069 1734 1069 1313 
Q 1069 891 1326 650 
Q 1584 409 2034 409 
Q 2484 409 2743 651 
Q 3003 894 3003 1313 
Q 3003 1734 2745 1975 
Q 2488 2216 2034 2216 
z
M 1403 2484 
Q 997 2584 770 2862 
Q 544 3141 544 3541 
Q 544 4100 942 4425 
Q 1341 4750 2034 4750 
Q 2731 4750 3128 4425 
Q 3525 4100 3525 3541 
Q 3525 3141 3298 2862 
Q 3072 2584 2669 2484 
Q 3125 2378 3379 2068 
Q 3634 1759 3634 1313 
Q 3634 634 3220 271 
Q 2806 -91 2034 -91 
Q 1263 -91 848 271 
Q 434 634 434 1313 
Q 434 1759 690 2068 
Q 947 2378 1403 2484 
z
M 1172 3481 
Q 1172 3119 1398 2916 
Q 1625 2713 2034 2713 
Q 2441 2713 2670 2916 
Q 2900 3119 2900 3481 
Q 2900 3844 2670 4047 
Q 2441 4250 2034 4250 
Q 1625 4250 1398 4047 
Q 1172 3844 1172 3481 
z
" id="DejaVuSans-38" transform="scale(0.015625)"/>
       </defs>
       <use xlink:href="#DejaVuSans-38"/>
       <use x="63.623047" xlink:href="#DejaVuSans-30"/>
      </g>
     </g>
    </g>
    <g id="xtick_6">
     <g id="line2d_6">
      <g>
       <use style="stroke:#000000;stroke-width:0.8;" x="400.439104" xlink:href="#m90dcabc8ea" y="307.584"/>
      </g>
     </g>
     <g id="text_6">
      <!-- 100 -->
      <g transform="translate(390.895354 322.182437)scale(0.1 -0.1)">
       <defs>
        <path d="M 794 531 
L 1825 531 
L 1825 4091 
L 703 3866 
L 703 4441 
L 1819 4666 
L 2450 4666 
L 2450 531 
L 3481 531 
L 3481 0 
L 794 0 
L 794 531 
z
" id="DejaVuSans-31" transform="scale(0.015625)"/>
       </defs>
       <use xlink:href="#DejaVuSans-31"/>
       <use x="63.623047" xlink:href="#DejaVuSans-30"/>
       <use x="127.246094" xlink:href="#DejaVuSans-30"/>
      </g>
     </g>
    </g>
    <g id="text_7">
     <!-- Percentile -->
     <g transform="translate(211.4975 335.860562)scale(0.1 -0.1)">
      <defs>
       <path d="M 1259 4147 
L 1259 2394 
L 2053 2394 
Q 2494 2394 2734 2622 
Q 2975 2850 2975 3272 
Q 2975 3691 2734 3919 
Q 2494 4147 2053 4147 
L 1259 4147 
z
M 628 4666 
L 2053 4666 
Q 2838 4666 3239 4311 
Q 3641 3956 3641 3272 
Q 3641 2581 3239 2228 
Q 2838 1875 2053 1875 
L 1259 1875 
L 1259 0 
L 628 0 
L 628 4666 
z
" id="DejaVuSans-50" transform="scale(0.015625)"/>
       <path d="M 3597 1894 
L 3597 1613 
L 953 1613 
Q 991 1019 1311 708 
Q 1631 397 2203 397 
Q 2534 397 2845 478 
Q 3156 559 3463 722 
L 3463 178 
Q 3153 47 2828 -22 
Q 2503 -91 2169 -91 
Q 1331 -91 842 396 
Q 353 884 353 1716 
Q 353 2575 817 3079 
Q 1281 3584 2069 3584 
Q 2775 3584 3186 3129 
Q 3597 2675 3597 1894 
z
M 3022 2063 
Q 3016 2534 2758 2815 
Q 2500 3097 2075 3097 
Q 1594 3097 1305 2825 
Q 1016 2553 972 2059 
L 3022 2063 
z
" id="DejaVuSans-65" transform="scale(0.015625)"/>
       <path d="M 2631 2963 
Q 2534 3019 2420 3045 
Q 2306 3072 2169 3072 
Q 1681 3072 1420 2755 
Q 1159 2438 1159 1844 
L 1159 0 
L 581 0 
L 581 3500 
L 1159 3500 
L 1159 2956 
Q 1341 3275 1631 3429 
Q 1922 3584 2338 3584 
Q 2397 3584 2469 3576 
Q 2541 3569 2628 3553 
L 2631 2963 
z
" id="DejaVuSans-72" transform="scale(0.015625)"/>
       <path d="M 3122 3366 
L 3122 2828 
Q 2878 2963 2633 3030 
Q 2388 3097 2138 3097 
Q 1578 3097 1268 2742 
Q 959 2388 959 1747 
Q 959 1106 1268 751 
Q 1578 397 2138 397 
Q 2388 397 2633 464 
Q 2878 531 3122 666 
L 3122 134 
Q 2881 22 2623 -34 
Q 2366 -91 2075 -91 
Q 1284 -91 818 406 
Q 353 903 353 1747 
Q 353 2603 823 3093 
Q 1294 3584 2113 3584 
Q 2378 3584 2631 3529 
Q 2884 3475 3122 3366 
z
" id="DejaVuSans-63" transform="scale(0.015625)"/>
       <path d="M 3513 2113 
L 3513 0 
L 2938 0 
L 2938 2094 
Q 2938 2591 2744 2837 
Q 2550 3084 2163 3084 
Q 1697 3084 1428 2787 
Q 1159 2491 1159 1978 
L 1159 0 
L 581 0 
L 581 3500 
L 1159 3500 
L 1159 2956 
Q 1366 3272 1645 3428 
Q 1925 3584 2291 3584 
Q 2894 3584 3203 3211 
Q 3513 2838 3513 2113 
z
" id="DejaVuSans-6e" transform="scale(0.015625)"/>
       <path d="M 1172 4494 
L 1172 3500 
L 2356 3500 
L 2356 3053 
L 1172 3053 
L 1172 1153 
Q 1172 725 1289 603 
Q 1406 481 1766 481 
L 2356 481 
L 2356 0 
L 1766 0 
Q 1100 0 847 248 
Q 594 497 594 1153 
L 594 3053 
L 172 3053 
L 172 3500 
L 594 3500 
L 594 4494 
L 1172 4494 
z
" id="DejaVuSans-74" transform="scale(0.015625)"/>
       <path d="M 603 3500 
L 1178 3500 
L 1178 0 
L 603 0 
L 603 3500 
z
M 603 4863 
L 1178 4863 
L 1178 4134 
L 603 4134 
L 603 4863 
z
" id="DejaVuSans-69" transform="scale(0.015625)"/>
       <path d="M 603 4863 
L 1178 4863 
L 1178 0 
L 603 0 
L 603 4863 
z
" id="DejaVuSans-6c" transform="scale(0.015625)"/>
      </defs>
      <use xlink:href="#DejaVuSans-50"/>
      <use x="56.677734" xlink:href="#DejaVuSans-65"/>
      <use x="118.201172" xlink:href="#DejaVuSans-72"/>
      <use x="157.064453" xlink:href="#DejaVuSans-63"/>
      <use x="212.044922" xlink:href="#DejaVuSans-65"/>
      <use x="273.568359" xlink:href="#DejaVuSans-6e"/>
      <use x="336.947266" xlink:href="#DejaVuSans-74"/>
      <use x="376.15625" xlink:href="#DejaVuSans-69"/>
      <use x="403.939453" xlink:href="#DejaVuSans-6c"/>
      <use x="431.722656" xlink:href="#DejaVuSans-65"/>
     </g>
    </g>
   </g>
   <g id="matplotlib.axis_2">
    <g id="ytick_1">
     <g id="line2d_7">
      <defs>
       <path d="M 0 0 
L -3.5 0 
" id="mbd330c3f6b" style="stroke:#000000;stroke-width:0.8;"/>
      </defs>
      <g>
       <use style="stroke:#000000;stroke-width:0.8;" x="57.6" xlink:href="#mbd330c3f6b" y="307.584"/>
      </g>
     </g>
     <g id="text_8">
      <!-- 0 -->
      <g transform="translate(44.2375 311.383219)scale(0.1 -0.1)">
       <use xlink:href="#DejaVuSans-30"/>
      </g>
     </g>
    </g>
    <g id="ytick_2">
     <g id="line2d_8">
      <g>
       <use style="stroke:#000000;stroke-width:0.8;" x="57.6" xlink:href="#mbd330c3f6b" y="273.792"/>
      </g>
     </g>
     <g id="text_9">
      <!-- 20 -->
      <g transform="translate(37.875 277.591219)scale(0.1 -0.1)">
       <use xlink:href="#DejaVuSans-32"/>
       <use x="63.623047" xlink:href="#DejaVuSans-30"/>
      </g>
     </g>
    </g>
    <g id="ytick_3">
     <g id="line2d_9">
      <g>
       <use style="stroke:#000000;stroke-width:0.8;" x="57.6" xlink:href="#mbd330c3f6b" y="240"/>
      </g>
     </g>
     <g id="text_10">
      <!-- 40 -->
      <g transform="translate(37.875 243.799219)scale(0.1 -0.1)">
       <use xlink:href="#DejaVuSans-34"/>
       <use x="63.623047" xlink:href="#DejaVuSans-30"/>
      </g>
     </g>
    </g>
    <g id="ytick_4">
     <g id="line2d_10">
      <g>
       <use style="stroke:#000000;stroke-width:0.8;" x="57.6" xlink:href="#mbd330c3f6b" y="206.208"/>
      </g>
     </g>
     <g id="text_11">
      <!-- 60 -->
      <g transform="translate(37.875 210.007219)scale(0.1 -0.1)">
       <use xlink:href="#DejaVuSans-36"/>
       <use x="63.623047" xlink:href="#DejaVuSans-30"/>
      </g>
     </g>
    </g>
    <g id="ytick_5">
     <g id="line2d_11">
      <g>
       <use style="stroke:#000000;stroke-width:0.8;" x="57.6" xlink:href="#mbd330c3f6b" y="172.416"/>
      </g>
     </g>
     <g id="text_12">
      <!-- 80 -->
      <g transform="translate(37.875 176.215219)scale(0.1 -0.1)">
       <use xlink:href="#DejaVuSans-38"/>
       <use x="63.623047" xlink:href="#DejaVuSans-30"/>
      </g>
     </g>
    </g>
    <g id="ytick_6">
     <g id="line2d_12">
      <g>
       <use style="stroke:#000000;stroke-width:0.8;" x="57.6" xlink:href="#mbd330c3f6b" y="138.624"/>
      </g>
     </g>
     <g id="text_13">
      <!-- 100 -->
      <g transform="translate(31.5125 142.423219)scale(0.1 -0.1)">
       <use xlink:href="#DejaVuSans-31"/>
       <use x="63.623047" xlink:href="#DejaVuSans-30"/>
       <use x="127.246094" xlink:href="#DejaVuSans-30"/>
      </g>
     </g>
    </g>
    <g id="ytick_7">
     <g id="line2d_13">
      <g>
       <use style="stroke:#000000;stroke-width:0.8;" x="57.6" xlink:href="#mbd330c3f6b" y="104.832"/>
      </g>
     </g>
     <g id="text_14">
      <!-- 120 -->
      <g transform="translate(31.5125 108.631219)scale(0.1 -0.1)">
       <use xlink:href="#DejaVuSans-31"/>
       <use x="63.623047" xlink:href="#DejaVuSans-32"/>
       <use x="127.246094" xlink:href="#DejaVuSans-30"/>
      </g>
     </g>
    </g>
    <g id="ytick_8">
     <g id="line2d_14">
      <g>
       <use style="stroke:#000000;stroke-width:0.8;" x="57.6" xlink:href="#mbd330c3f6b" y="71.04"/>
      </g>
     </g>
     <g id="text_15">
      <!-- 140 -->
      <g transform="translate(31.5125 74.839219)scale(0.1 -0.1)">
       <use xlink:href="#DejaVuSans-31"/>
       <use x="63.623047" xlink:href="#DejaVuSans-34"/>
       <use x="127.246094" xlink:href="#DejaVuSans-30"/>
      </g>
     </g>
    </g>
    <g id="text_16">
     <!-- Time, microseconds -->
     <g transform="translate(25.432812 224.388156)rotate(-90)scale(0.1 -0.1)">
      <defs>
       <path d="M -19 4666 
L 3928 4666 
L 3928 4134 
L 2272 4134 
L 2272 0 
L 1638 0 
L 1638 4134 
L -19 4134 
L -19 4666 
z
" id="DejaVuSans-54" transform="scale(0.015625)"/>
       <path d="M 3328 2828 
Q 3544 3216 3844 3400 
Q 4144 3584 4550 3584 
Q 5097 3584 5394 3201 
Q 5691 2819 5691 2113 
L 5691 0 
L 5113 0 
L 5113 2094 
Q 5113 2597 4934 2840 
Q 4756 3084 4391 3084 
Q 3944 3084 3684 2787 
Q 3425 2491 3425 1978 
L 3425 0 
L 2847 0 
L 2847 2094 
Q 2847 2600 2669 2842 
Q 2491 3084 2119 3084 
Q 1678 3084 1418 2786 
Q 1159 2488 1159 1978 
L 1159 0 
L 581 0 
L 581 3500 
L 1159 3500 
L 1159 2956 
Q 1356 3278 1631 3431 
Q 1906 3584 2284 3584 
Q 2666 3584 2933 3390 
Q 3200 3197 3328 2828 
z
" id="DejaVuSans-6d" transform="scale(0.015625)"/>
       <path d="M 750 794 
L 1409 794 
L 1409 256 
L 897 -744 
L 494 -744 
L 750 256 
L 750 794 
z
" id="DejaVuSans-2c" transform="scale(0.015625)"/>
       <path id="DejaVuSans-20" transform="scale(0.015625)"/>
       <path d="M 1959 3097 
Q 1497 3097 1228 2736 
Q 959 2375 959 1747 
Q 959 1119 1226 758 
Q 1494 397 1959 397 
Q 2419 397 2687 759 
Q 2956 1122 2956 1747 
Q 2956 2369 2687 2733 
Q 2419 3097 1959 3097 
z
M 1959 3584 
Q 2709 3584 3137 3096 
Q 3566 2609 3566 1747 
Q 3566 888 3137 398 
Q 2709 -91 1959 -91 
Q 1206 -91 779 398 
Q 353 888 353 1747 
Q 353 2609 779 3096 
Q 1206 3584 1959 3584 
z
" id="DejaVuSans-6f" transform="scale(0.015625)"/>
       <path d="M 2834 3397 
L 2834 2853 
Q 2591 2978 2328 3040 
Q 2066 3103 1784 3103 
Q 1356 3103 1142 2972 
Q 928 2841 928 2578 
Q 928 2378 1081 2264 
Q 1234 2150 1697 2047 
L 1894 2003 
Q 2506 1872 2764 1633 
Q 3022 1394 3022 966 
Q 3022 478 2636 193 
Q 2250 -91 1575 -91 
Q 1294 -91 989 -36 
Q 684 19 347 128 
L 347 722 
Q 666 556 975 473 
Q 1284 391 1588 391 
Q 1994 391 2212 530 
Q 2431 669 2431 922 
Q 2431 1156 2273 1281 
Q 2116 1406 1581 1522 
L 1381 1569 
Q 847 1681 609 1914 
Q 372 2147 372 2553 
Q 372 3047 722 3315 
Q 1072 3584 1716 3584 
Q 2034 3584 2315 3537 
Q 2597 3491 2834 3397 
z
" id="DejaVuSans-73" transform="scale(0.015625)"/>
       <path d="M 2906 2969 
L 2906 4863 
L 3481 4863 
L 3481 0 
L 2906 0 
L 2906 525 
Q 2725 213 2448 61 
Q 2172 -91 1784 -91 
Q 1150 -91 751 415 
Q 353 922 353 1747 
Q 353 2572 751 3078 
Q 1150 3584 1784 3584 
Q 2172 3584 2448 3432 
Q 2725 3281 2906 2969 
z
M 947 1747 
Q 947 1113 1208 752 
Q 1469 391 1925 391 
Q 2381 391 2643 752 
Q 2906 1113 2906 1747 
Q 2906 2381 2643 2742 
Q 2381 3103 1925 3103 
Q 1469 3103 1208 2742 
Q 947 2381 947 1747 
z
" id="DejaVuSans-64" transform="scale(0.015625)"/>
      </defs>
      <use xlink:href="#DejaVuSans-54"/>
      <use x="57.958984" xlink:href="#DejaVuSans-69"/>
      <use x="85.742188" xlink:href="#DejaVuSans-6d"/>
      <use x="183.154297" xlink:href="#DejaVuSans-65"/>
      <use x="244.677734" xlink:href="#DejaVuSans-2c"/>
      <use x="276.464844" xlink:href="#DejaVuSans-20"/>
      <use x="308.251953" xlink:href="#DejaVuSans-6d"/>
      <use x="405.664062" xlink:href="#DejaVuSans-69"/>
      <use x="433.447266" xlink:href="#DejaVuSans-63"/>
      <use x="488.427734" xlink:href="#DejaVuSans-72"/>
      <use x="527.291016" xlink:href="#DejaVuSans-6f"/>
      <use x="588.472656" xlink:href="#DejaVuSans-73"/>
      <use x="640.572266" xlink:href="#DejaVuSans-65"/>
      <use x="702.095703" xlink:href="#DejaVuSans-63"/>
      <use x="757.076172" xlink:href="#DejaVuSans-6f"/>
      <use x="818.257812" xlink:href="#DejaVuSans-6e"/>
      <use x="881.636719" xlink:href="#DejaVuSans-64"/>
      <use x="945.113281" xlink:href="#DejaVuSans-73"/>
     </g>
    </g>
   </g>
   <g id="patch_103">
    <path d="M 57.6 307.584 
L 57.6 41.472 
" style="fill:none;stroke:#000000;stroke-linecap:square;stroke-linejoin:miter;stroke-width:0.8;"/>
   </g>
   <g id="patch_104">
    <path d="M 414.72 307.584 
L 414.72 41.472 
" style="fill:none;stroke:#000000;stroke-linecap:square;stroke-linejoin:miter;stroke-width:0.8;"/>
   </g>
   <g id="patch_105">
    <path d="M 57.6 307.584 
L 414.72 307.584 
" style="fill:none;stroke:#000000;stroke-linecap:square;stroke-linejoin:miter;stroke-width:0.8;"/>
   </g>
   <g id="patch_106">
    <path d="M 57.6 41.472 
L 414.72 41.472 
" style="fill:none;stroke:#000000;stroke-linecap:square;stroke-linejoin:miter;stroke-width:0.8;"/>
   </g>
   <g id="text_17">
    <!-- "Get" percentile -->
    <g transform="translate(188.03625 35.472)scale(0.12 -0.12)">
     <defs>
      <path d="M 1147 4666 
L 1147 2931 
L 616 2931 
L 616 4666 
L 1147 4666 
z
M 2328 4666 
L 2328 2931 
L 1797 2931 
L 1797 4666 
L 2328 4666 
z
" id="DejaVuSans-22" transform="scale(0.015625)"/>
      <path d="M 3809 666 
L 3809 1919 
L 2778 1919 
L 2778 2438 
L 4434 2438 
L 4434 434 
Q 4069 175 3628 42 
Q 3188 -91 2688 -91 
Q 1594 -91 976 548 
Q 359 1188 359 2328 
Q 359 3472 976 4111 
Q 1594 4750 2688 4750 
Q 3144 4750 3555 4637 
Q 3966 4525 4313 4306 
L 4313 3634 
Q 3963 3931 3569 4081 
Q 3175 4231 2741 4231 
Q 1884 4231 1454 3753 
Q 1025 3275 1025 2328 
Q 1025 1384 1454 906 
Q 1884 428 2741 428 
Q 3075 428 3337 486 
Q 3600 544 3809 666 
z
" id="DejaVuSans-47" transform="scale(0.015625)"/>
      <path d="M 1159 525 
L 1159 -1331 
L 581 -1331 
L 581 3500 
L 1159 3500 
L 1159 2969 
Q 1341 3281 1617 3432 
Q 1894 3584 2278 3584 
Q 2916 3584 3314 3078 
Q 3713 2572 3713 1747 
Q 3713 922 3314 415 
Q 2916 -91 2278 -91 
Q 1894 -91 1617 61 
Q 1341 213 1159 525 
z
M 3116 1747 
Q 3116 2381 2855 2742 
Q 2594 3103 2138 3103 
Q 1681 3103 1420 2742 
Q 1159 2381 1159 1747 
Q 1159 1113 1420 752 
Q 1681 391 2138 391 
Q 2594 391 2855 752 
Q 3116 1113 3116 1747 
z
" id="DejaVuSans-70" transform="scale(0.015625)"/>
     </defs>
     <use xlink:href="#DejaVuSans-22"/>
     <use x="45.996094" xlink:href="#DejaVuSans-47"/>
     <use x="123.486328" xlink:href="#DejaVuSans-65"/>
     <use x="185.009766" xlink:href="#DejaVuSans-74"/>
     <use x="224.21875" xlink:href="#DejaVuSans-22"/>
     <use x="270.214844" xlink:href="#DejaVuSans-20"/>
     <use x="302.001953" xlink:href="#DejaVuSans-70"/>
     <use x="365.478516" xlink:href="#DejaVuSans-65"/>
     <use x="427.001953" xlink:href="#DejaVuSans-72"/>
     <use x="465.865234" xlink:href="#DejaVuSans-63"/>
     <use x="520.845703" xlink:href="#DejaVuSans-65"/>
     <use x="582.369141" xlink:href="#DejaVuSans-6e"/>
     <use x="645.748047" xlink:href="#DejaVuSans-74"/>
     <use x="684.957031" xlink:href="#DejaVuSans-69"/>
     <use x="712.740234" xlink:href="#DejaVuSans-6c"/>
     <use x="740.523438" xlink:href="#DejaVuSans-65"/>
    </g>
   </g>
  </g>
 </g>
 <defs>
  <clipPath id="p8d9220e1c4">
   <rect height="266.112" width="357.12" x="57.6" y="41.472"/>
  </clipPath>
 </defs>
</svg>
